<svg width="750" height="500" viewBox="0 0 750 500" fill="none"
  xmlns="http://www.w3.org/2000/svg">
  <path d="M694.01 280.7H593.84V391.21H694.01V280.7Z" fill="#EBEBEB"/>
  <path d="M664.48 290.47H623.37V292.02H664.48V290.47Z" fill="#C7C7C7"/>
  <path d="M654.48 294.9H633.37V296.45H654.48V294.9Z" fill="#C7C7C7"/>
  <path d="M644.48 308.21H603.37V309.95H644.48V308.21Z" fill="#C7C7C7"/>
  <path d="M654.48 313.18H603.37V314.92H654.48V313.18Z" fill="#C7C7C7"/>
  <path d="M629.97 318.16H603.37V319.9H629.97V318.16Z" fill="#C7C7C7"/>
  <path d="M648.93 323.14H603.37V324.88H648.93V323.14Z" fill="#C7C7C7"/>
  <path d="M653.58 328.12H603.37V329.86H653.58V328.12Z" fill="#C7C7C7"/>
  <path d="M649.37 333.1H603.37V334.84H649.37V333.1Z" fill="#C7C7C7"/>
  <path d="M654.48 338.07H603.37V339.81H654.48V338.07Z" fill="#C7C7C7"/>
  <path d="M650.59 343.05H603.37V344.79H650.59V343.05Z" fill="#C7C7C7"/>
  <path d="M641.94 348.03H603.37V349.77H641.94V348.03Z" fill="#C7C7C7"/>
  <path d="M654.02 353.01H603.37V354.75H654.02V353.01Z" fill="#C7C7C7"/>
  <path d="M651.14 357.99H603.37V359.73H651.14V357.99Z" fill="#C7C7C7"/>
  <path d="M684.48 313.18H668.99V314.92H684.48V313.18Z" fill="#C7C7C7"/>
  <path d="M684.48 318.16H668.99V319.9H684.48V318.16Z" fill="#C7C7C7"/>
  <path d="M684.48 323.14H668.99V324.88H684.48V323.14Z" fill="#C7C7C7"/>
  <path d="M684.48 328.12H668.99V329.86H684.48V328.12Z" fill="#C7C7C7"/>
  <path d="M684.48 333.1H668.99V334.84H684.48V333.1Z" fill="#C7C7C7"/>
  <path d="M684.48 338.07H668.99V339.81H684.48V338.07Z" fill="#C7C7C7"/>
  <path d="M684.48 343.05H668.99V344.79H684.48V343.05Z" fill="#C7C7C7"/>
  <path d="M684.48 348.03H668.99V349.77H684.48V348.03Z" fill="#C7C7C7"/>
  <path d="M641.94 378.63H603.37V380.37H641.94V378.63Z" fill="#C7C7C7"/>
  <path d="M684.48 378.63H668.99V380.37H684.48V378.63Z" fill="#C7C7C7"/>
  <path d="M684.48 353.01H668.99V354.75H684.48V353.01Z" fill="#C7C7C7"/>
  <path d="M684.48 357.99H668.99V359.73H684.48V357.99Z" fill="#C7C7C7"/>
  <path d="M233.12 50.4299L255.85 149.34C256.154 150.654 256.195 152.016 255.973 153.347C255.75 154.677 255.268 155.951 254.553 157.095C253.837 158.239 252.904 159.231 251.805 160.015C250.707 160.798 249.465 161.357 248.15 161.66L91.2699 197.71C88.6208 198.308 85.8426 197.833 83.5432 196.388C81.2437 194.943 79.6101 192.646 78.9999 190L56.2299 91.0799C55.6641 88.6097 56.1012 86.0158 57.4454 83.8674C58.7895 81.719 60.9309 80.1915 63.3999 79.6199L221.67 43.2499C222.893 42.9687 224.16 42.9313 225.398 43.14C226.635 43.3487 227.82 43.7994 228.883 44.4662C229.947 45.1331 230.868 46.0031 231.595 47.0264C232.322 48.0497 232.84 49.2062 233.12 50.4299Z" fill="#EBEBEB"/>
  <path d="M101.962 88.6464L76.9439 94.3947C74.6832 94.9141 73.2717 97.1679 73.7911 99.4285L77.1836 114.194C77.7031 116.455 79.9568 117.866 82.2175 117.347L107.236 111.598C109.496 111.079 110.908 108.825 110.388 106.564L106.996 91.7992C106.476 89.5385 104.223 88.127 101.962 88.6464Z" fill="#DBDBDB"/>
  <path d="M81.72 139.48L80.54 140.6C80.4977 140.641 80.4463 140.672 80.39 140.69C80.331 140.703 80.2697 140.701 80.2118 140.683C80.154 140.666 80.1017 140.634 80.06 140.59C80.0259 140.56 79.9987 140.523 79.98 140.481C79.9613 140.44 79.9517 140.395 79.9517 140.35C79.9517 140.304 79.9613 140.26 79.98 140.218C79.9987 140.177 80.0259 140.14 80.06 140.11L81.66 138.55C81.727 138.493 81.812 138.461 81.9 138.461C81.988 138.461 82.0731 138.493 82.14 138.55C82.1957 138.619 82.2304 138.702 82.24 138.79L84.24 147.64C84.2503 147.683 84.252 147.727 84.245 147.77C84.238 147.814 84.2224 147.855 84.1991 147.892C84.1758 147.93 84.1453 147.962 84.1094 147.987C84.0735 148.013 84.0329 148.03 83.99 148.04C83.9025 148.061 83.8102 148.046 83.7333 148C83.6565 147.953 83.6013 147.877 83.58 147.79L81.72 139.48Z" fill="#C7C7C7"/>
  <path d="M86.5997 146.85L90.1597 141.76C90.5174 141.208 90.6469 140.538 90.5208 139.892C90.3947 139.247 90.023 138.675 89.4838 138.298C88.9446 137.921 88.2801 137.767 87.6303 137.87C86.9804 137.973 86.3958 138.325 85.9997 138.85L85.6297 139.39C85.6055 139.428 85.574 139.46 85.5369 139.485C85.4998 139.51 85.458 139.527 85.414 139.536C85.3701 139.544 85.3248 139.544 85.2811 139.534C85.2374 139.524 85.1961 139.506 85.1597 139.48C85.1212 139.457 85.088 139.426 85.0619 139.389C85.0358 139.352 85.0176 139.311 85.0082 139.267C84.9988 139.223 84.9986 139.177 85.0074 139.133C85.0163 139.089 85.0341 139.047 85.0597 139.01L85.4297 138.46C85.9089 137.79 86.6231 137.326 87.4297 137.16C87.8659 137.057 88.3189 137.049 88.7587 137.135C89.1984 137.221 89.6147 137.4 89.9797 137.66C90.6409 138.109 91.1087 138.791 91.2897 139.57C91.3881 140.011 91.3945 140.468 91.3085 140.912C91.2225 141.356 91.0459 141.777 90.7897 142.15L87.7897 146.52L92.3397 145.47C92.4274 145.455 92.5175 145.474 92.5916 145.524C92.6657 145.573 92.7183 145.648 92.7386 145.735C92.759 145.822 92.7457 145.913 92.7013 145.99C92.6569 146.067 92.5848 146.124 92.4997 146.15L86.9997 147.38C86.9576 147.4 86.9115 147.411 86.8647 147.411C86.818 147.411 86.7718 147.4 86.7297 147.38C86.6847 147.355 86.6453 147.322 86.614 147.281C86.5828 147.24 86.5603 147.193 86.5481 147.144C86.5358 147.094 86.5341 147.042 86.543 146.991C86.5519 146.941 86.5712 146.893 86.5997 146.85Z" fill="#C7C7C7"/>
  <path d="M98.6098 135.21L96.6997 138.34C97.356 138.327 98.002 138.504 98.5597 138.85C99.3034 139.331 99.8261 140.088 100.014 140.954C100.201 141.819 100.038 142.724 99.5597 143.47C99.0872 144.225 98.3364 144.764 97.4698 144.97C97.0416 145.068 96.5981 145.08 96.1654 145.004C95.7327 144.929 95.3194 144.767 94.9497 144.53C94.8813 144.477 94.8351 144.4 94.82 144.315C94.805 144.229 94.8221 144.141 94.8682 144.068C94.9143 143.994 94.9859 143.941 95.0694 143.917C95.1528 143.893 95.242 143.902 95.3198 143.94C95.6149 144.124 95.9436 144.248 96.2868 144.305C96.63 144.361 96.9811 144.349 97.3198 144.27C98.0116 144.116 98.6151 143.695 98.9998 143.1C99.1876 142.806 99.3145 142.478 99.3729 142.135C99.4313 141.791 99.42 141.439 99.3397 141.1C99.1846 140.417 98.765 139.822 98.1727 139.447C97.5805 139.073 96.8639 138.948 96.1798 139.1C96.1254 139.109 96.0696 139.107 96.0162 139.093C95.9627 139.079 95.9128 139.055 95.8698 139.02C95.829 138.996 95.7935 138.965 95.7652 138.927C95.737 138.889 95.7167 138.846 95.7055 138.801C95.6943 138.755 95.6924 138.707 95.7 138.661C95.7076 138.614 95.7245 138.57 95.7498 138.53L97.5798 135.53L93.8898 136.37C93.844 136.384 93.7958 136.388 93.7483 136.383C93.7007 136.377 93.6548 136.362 93.6134 136.338C93.5719 136.315 93.5358 136.282 93.5072 136.244C93.4786 136.206 93.4583 136.162 93.4473 136.115C93.4363 136.069 93.435 136.02 93.4435 135.973C93.4519 135.926 93.47 135.881 93.4964 135.841C93.5229 135.802 93.5573 135.768 93.5974 135.742C93.6375 135.715 93.6826 135.698 93.7298 135.69L98.2298 134.69C98.3226 134.669 98.4199 134.686 98.5005 134.736C98.581 134.787 98.6383 134.867 98.6598 134.96C98.6748 135.012 98.6748 135.068 98.6598 135.12C98.6495 135.153 98.6325 135.184 98.6098 135.21Z" fill="#C7C7C7"/>
  <path d="M108.31 140.4L103.1 141.6C103.038 141.616 102.972 141.613 102.911 141.592C102.85 141.571 102.796 141.533 102.757 141.482C102.718 141.431 102.694 141.369 102.689 141.305C102.685 141.24 102.699 141.176 102.73 141.12L106.73 132.9C106.749 132.859 106.776 132.822 106.81 132.792C106.844 132.761 106.884 132.739 106.927 132.725C106.97 132.71 107.016 132.705 107.061 132.71C107.106 132.714 107.15 132.728 107.19 132.75C107.26 132.75 107.3 132.84 107.34 132.89V132.94L108.85 139.54L109.5 139.4C109.544 139.388 109.59 139.385 109.635 139.391C109.68 139.397 109.724 139.412 109.763 139.436C109.802 139.459 109.836 139.49 109.863 139.527C109.89 139.564 109.91 139.605 109.92 139.65C109.938 139.74 109.919 139.833 109.869 139.91C109.818 139.987 109.74 140.041 109.65 140.06L109 140.21L109.38 141.86C109.39 141.904 109.392 141.95 109.384 141.994C109.377 142.039 109.36 142.081 109.336 142.119C109.312 142.158 109.28 142.191 109.243 142.216C109.206 142.242 109.164 142.26 109.12 142.27C109.031 142.288 108.939 142.271 108.863 142.223C108.786 142.174 108.731 142.098 108.71 142.01L108.31 140.4ZM108.16 139.74L106.86 134.1L103.6 140.79L108.16 139.74Z" fill="#C7C7C7"/>
  <path d="M120.62 138.66C120.58 138.636 120.546 138.605 120.519 138.568C120.492 138.531 120.472 138.488 120.462 138.443C120.452 138.399 120.451 138.352 120.459 138.307C120.467 138.261 120.484 138.218 120.51 138.18C120.56 138.1 120.639 138.042 120.73 138.02C120.822 137.997 120.919 138.012 121 138.06C121.597 138.428 122.316 138.547 123 138.39C123.684 138.232 124.278 137.811 124.653 137.217C125.028 136.623 125.152 135.905 125 135.22C124.882 134.712 124.615 134.25 124.235 133.893C123.854 133.536 123.376 133.3 122.862 133.215C122.347 133.129 121.819 133.198 121.343 133.412C120.868 133.627 120.466 133.977 120.19 134.42C120.166 134.459 120.135 134.494 120.098 134.521C120.061 134.548 120.018 134.567 119.973 134.578C119.929 134.588 119.882 134.589 119.837 134.581C119.791 134.573 119.748 134.555 119.71 134.53C119.67 134.508 119.636 134.477 119.61 134.44C119.603 134.407 119.603 134.373 119.61 134.34V134.27L119.18 130.27C119.172 130.22 119.175 130.169 119.188 130.121C119.202 130.072 119.227 130.028 119.26 129.99C119.284 129.955 119.315 129.925 119.351 129.902C119.387 129.88 119.428 129.865 119.47 129.86L123.95 128.86C124.042 128.841 124.139 128.859 124.218 128.909C124.298 128.96 124.356 129.038 124.38 129.13C124.392 129.175 124.394 129.223 124.386 129.269C124.379 129.315 124.362 129.359 124.337 129.399C124.311 129.438 124.278 129.472 124.239 129.498C124.2 129.524 124.156 129.542 124.11 129.55L119.91 130.55L120.23 133.49C120.659 133.087 121.187 132.804 121.76 132.67C122.188 132.569 122.632 132.555 123.066 132.628C123.5 132.701 123.915 132.859 124.287 133.093C124.659 133.328 124.981 133.634 125.234 133.994C125.487 134.354 125.665 134.76 125.76 135.19C125.861 135.618 125.876 136.063 125.804 136.497C125.732 136.931 125.574 137.347 125.34 137.72C124.858 138.462 124.11 138.992 123.25 139.2C122.798 139.296 122.331 139.298 121.878 139.205C121.426 139.112 120.997 138.926 120.62 138.66Z" fill="#C7C7C7"/>
  <path d="M128.28 130C128.462 129.308 128.826 128.678 129.334 128.175C129.843 127.672 130.477 127.315 131.17 127.14C131.256 127.115 131.349 127.125 131.427 127.168C131.506 127.212 131.564 127.284 131.59 127.37C131.61 127.461 131.595 127.557 131.549 127.638C131.503 127.719 131.428 127.78 131.34 127.81C130.762 127.958 130.234 128.257 129.81 128.677C129.386 129.097 129.082 129.623 128.93 130.2C128.737 130.879 128.656 131.585 128.69 132.29C128.906 131.879 129.208 131.52 129.576 131.237C129.943 130.954 130.368 130.754 130.82 130.65C131.444 130.506 132.097 130.549 132.697 130.773C133.298 130.998 133.818 131.395 134.194 131.914C134.57 132.433 134.785 133.051 134.811 133.691C134.838 134.332 134.675 134.965 134.343 135.514C134.012 136.062 133.526 136.5 132.946 136.774C132.367 137.048 131.719 137.144 131.085 137.052C130.451 136.96 129.858 136.683 129.381 136.256C128.903 135.829 128.562 135.27 128.4 134.65C128.323 134.445 128.263 134.234 128.22 134.02C127.903 132.696 127.924 131.314 128.28 130ZM129.06 134.46C129.071 134.521 129.095 134.579 129.13 134.63C129.14 134.663 129.14 134.697 129.13 134.73C129.338 135.4 129.798 135.963 130.413 136.299C131.029 136.636 131.751 136.719 132.427 136.533C133.103 136.346 133.68 135.904 134.036 135.299C134.391 134.695 134.498 133.976 134.333 133.294C134.167 132.612 133.743 132.022 133.15 131.647C132.557 131.273 131.842 131.144 131.155 131.287C130.469 131.431 129.865 131.836 129.472 132.417C129.079 132.998 128.928 133.709 129.05 134.4L129.06 134.46Z" fill="#C7C7C7"/>
  <path d="M138.87 135L140.49 125.73L135.84 126.8C135.752 126.821 135.66 126.806 135.583 126.76C135.506 126.713 135.451 126.637 135.43 126.55C135.412 126.461 135.429 126.369 135.477 126.292C135.526 126.216 135.602 126.161 135.69 126.14L140.78 124.97C140.848 124.95 140.921 124.95 140.99 124.97C141.083 124.995 141.164 125.052 141.22 125.13C141.241 125.164 141.257 125.201 141.27 125.24C141.29 125.302 141.29 125.368 141.27 125.43L139.58 135.15C139.566 135.213 139.536 135.272 139.492 135.319C139.448 135.367 139.392 135.401 139.33 135.42C139.281 135.435 139.229 135.435 139.18 135.42C139.083 135.405 138.996 135.352 138.938 135.274C138.88 135.195 138.856 135.097 138.87 135Z" fill="#C7C7C7"/>
  <path d="M146.28 123.62C146.81 123.5 147.366 123.593 147.828 123.879C148.291 124.165 148.622 124.622 148.75 125.15C148.82 125.468 148.814 125.798 148.735 126.114C148.655 126.43 148.502 126.723 148.29 126.97C149.017 127.094 149.679 127.467 150.163 128.025C150.646 128.583 150.921 129.291 150.941 130.029C150.961 130.767 150.724 131.488 150.271 132.071C149.819 132.654 149.178 133.062 148.458 133.225C147.738 133.389 146.984 133.297 146.324 132.967C145.664 132.636 145.139 132.087 144.838 131.413C144.538 130.739 144.48 129.982 144.676 129.27C144.871 128.558 145.307 127.936 145.91 127.51C145.618 127.376 145.36 127.176 145.157 126.926C144.954 126.677 144.812 126.384 144.74 126.07C144.674 125.808 144.661 125.535 144.703 125.268C144.746 125 144.842 124.745 144.986 124.515C145.13 124.286 145.318 124.089 145.541 123.935C145.763 123.781 146.015 123.674 146.28 123.62ZM148.34 132.62C148.827 132.512 149.272 132.262 149.617 131.902C149.962 131.541 150.193 131.086 150.279 130.595C150.365 130.103 150.303 129.597 150.101 129.14C149.9 128.684 149.567 128.297 149.145 128.03C148.723 127.763 148.232 127.627 147.733 127.64C147.234 127.653 146.75 127.813 146.342 128.101C145.934 128.39 145.622 128.792 145.443 129.258C145.265 129.725 145.229 130.233 145.34 130.72C145.492 131.364 145.893 131.922 146.455 132.273C147.017 132.623 147.694 132.737 148.34 132.59V132.62ZM147.05 127C147.399 126.904 147.698 126.676 147.884 126.365C148.07 126.054 148.13 125.684 148.05 125.33C147.959 124.984 147.737 124.687 147.431 124.502C147.125 124.317 146.759 124.257 146.41 124.336C146.062 124.416 145.757 124.627 145.561 124.926C145.365 125.225 145.293 125.589 145.36 125.94C145.401 126.121 145.478 126.291 145.585 126.442C145.692 126.593 145.828 126.722 145.985 126.82C146.142 126.919 146.317 126.985 146.5 127.016C146.682 127.047 146.869 127.041 147.05 127Z" fill="#C7C7C7"/>
  <path d="M163.4 119.69C164.18 119.504 165.001 119.613 165.705 119.998C166.409 120.382 166.945 121.013 167.21 121.77V121.83C167.29 122.09 167.36 122.36 167.43 122.65C167.766 123.962 167.766 125.338 167.43 126.65C167.241 127.338 166.875 127.965 166.368 128.467C165.86 128.969 165.23 129.328 164.54 129.51C164.497 129.522 164.451 129.525 164.407 129.52C164.362 129.514 164.319 129.5 164.28 129.478C164.241 129.455 164.207 129.425 164.179 129.39C164.152 129.354 164.132 129.313 164.12 129.27C164.098 129.18 164.112 129.085 164.159 129.005C164.205 128.925 164.281 128.866 164.37 128.84C164.947 128.688 165.473 128.386 165.894 127.964C166.316 127.542 166.618 127.016 166.77 126.44C166.97 125.766 167.055 125.062 167.02 124.36C166.76 124.838 166.385 125.243 165.929 125.539C165.472 125.835 164.949 126.012 164.407 126.054C163.864 126.096 163.32 126.001 162.824 125.779C162.327 125.557 161.894 125.214 161.564 124.781C161.234 124.349 161.017 123.841 160.934 123.303C160.851 122.766 160.903 122.216 161.087 121.704C161.27 121.192 161.579 120.734 161.985 120.371C162.39 120.009 162.88 119.754 163.41 119.63L163.4 119.69ZM166.65 122.27C166.541 121.773 166.287 121.319 165.921 120.966C165.555 120.613 165.092 120.376 164.592 120.284C164.091 120.193 163.575 120.252 163.108 120.454C162.64 120.656 162.243 120.991 161.966 121.418C161.689 121.845 161.544 122.344 161.55 122.852C161.556 123.361 161.712 123.857 161.999 124.277C162.286 124.698 162.691 125.024 163.162 125.214C163.634 125.405 164.152 125.452 164.65 125.35C164.985 125.282 165.304 125.148 165.587 124.956C165.869 124.764 166.111 124.517 166.297 124.23C166.484 123.943 166.611 123.622 166.671 123.286C166.732 122.949 166.725 122.604 166.65 122.27Z" fill="#C7C7C7"/>
  <path d="M170.14 123.21C169.843 122.024 169.895 120.777 170.29 119.62C170.423 119.13 170.686 118.685 171.053 118.333C171.419 117.981 171.874 117.735 172.37 117.622C172.865 117.509 173.381 117.533 173.864 117.691C174.347 117.849 174.778 118.136 175.11 118.52C175.966 119.388 176.558 120.48 176.82 121.67C177.106 122.855 177.047 124.097 176.65 125.25C176.522 125.743 176.261 126.191 175.896 126.545C175.531 126.9 175.075 127.147 174.579 127.261C174.083 127.374 173.565 127.349 173.082 127.189C172.599 127.028 172.169 126.738 171.84 126.35C170.976 125.494 170.385 124.401 170.14 123.21ZM170.82 123.05C171.038 124.109 171.559 125.082 172.32 125.85C172.584 126.137 172.914 126.354 173.283 126.481C173.651 126.609 174.045 126.643 174.43 126.58C174.8 126.463 175.136 126.258 175.409 125.983C175.683 125.708 175.885 125.371 176 125C176.335 123.969 176.384 122.867 176.143 121.811C175.902 120.754 175.379 119.783 174.63 119C174.381 118.694 174.051 118.465 173.679 118.337C173.306 118.209 172.905 118.188 172.52 118.276C172.136 118.365 171.785 118.559 171.505 118.837C171.226 119.115 171.03 119.466 170.94 119.85C170.593 120.883 170.551 121.994 170.82 123.05Z" fill="#C7C7C7"/>
  <path d="M180.39 116.81L179.21 117.92C179.169 117.962 179.117 117.994 179.06 118.01C179.002 118.024 178.941 118.024 178.883 118.008C178.825 117.992 178.773 117.962 178.73 117.92C178.696 117.889 178.668 117.851 178.65 117.809C178.631 117.767 178.621 117.721 178.621 117.675C178.621 117.629 178.631 117.583 178.65 117.541C178.668 117.499 178.696 117.461 178.73 117.43L180.33 115.88C180.395 115.819 180.481 115.785 180.57 115.785C180.659 115.785 180.745 115.819 180.81 115.88C180.867 115.948 180.902 116.032 180.91 116.12L182.91 124.96C182.931 125.047 182.917 125.14 182.87 125.217C182.823 125.293 182.747 125.349 182.66 125.37C182.573 125.388 182.482 125.373 182.405 125.326C182.329 125.28 182.274 125.206 182.25 125.12L180.39 116.81Z" fill="#C7C7C7"/>
  <path d="M185.26 124.18L188.83 119.09C189.029 118.801 189.167 118.475 189.236 118.131C189.305 117.787 189.303 117.433 189.23 117.09C189.075 116.446 188.675 115.888 188.114 115.535C187.554 115.182 186.878 115.062 186.23 115.2C185.613 115.331 185.068 115.688 184.7 116.2L184.33 116.73C184.307 116.769 184.276 116.802 184.239 116.828C184.202 116.854 184.16 116.872 184.115 116.88C184.071 116.889 184.025 116.888 183.981 116.878C183.937 116.867 183.896 116.847 183.86 116.82C183.82 116.798 183.786 116.767 183.759 116.731C183.732 116.694 183.713 116.652 183.704 116.607C183.694 116.563 183.694 116.517 183.704 116.473C183.714 116.428 183.733 116.386 183.76 116.35L184.13 115.81C184.599 115.151 185.292 114.685 186.08 114.5C186.911 114.317 187.781 114.468 188.501 114.921C189.221 115.374 189.735 116.092 189.93 116.92C190.032 117.36 190.042 117.817 189.957 118.262C189.873 118.706 189.697 119.128 189.44 119.5L186.39 123.86L190.94 122.86C190.985 122.85 191.031 122.849 191.076 122.857C191.121 122.865 191.164 122.882 191.203 122.907C191.241 122.933 191.274 122.965 191.299 123.004C191.324 123.042 191.342 123.085 191.35 123.13C191.366 123.216 191.349 123.304 191.303 123.378C191.256 123.452 191.184 123.506 191.1 123.53L185.73 124.76H185.67C185.583 124.795 185.487 124.795 185.4 124.76C185.349 124.734 185.304 124.698 185.269 124.654C185.234 124.609 185.208 124.558 185.195 124.502C185.182 124.447 185.181 124.39 185.192 124.334C185.203 124.278 185.226 124.226 185.26 124.18Z" fill="#C7C7C7"/>
  <path d="M205.52 110.64L203.62 113.77C204.275 113.758 204.919 113.931 205.48 114.27C206.227 114.751 206.758 115.504 206.96 116.37C207.061 116.8 207.074 117.245 206.999 117.68C206.923 118.115 206.76 118.53 206.52 118.9C206.049 119.657 205.297 120.196 204.43 120.4C204.003 120.498 203.561 120.509 203.13 120.434C202.699 120.358 202.288 120.197 201.92 119.96C201.876 119.938 201.837 119.908 201.806 119.87C201.774 119.832 201.751 119.789 201.738 119.742C201.725 119.694 201.721 119.645 201.728 119.597C201.735 119.548 201.752 119.502 201.778 119.46C201.804 119.419 201.839 119.383 201.879 119.356C201.92 119.329 201.966 119.31 202.014 119.302C202.062 119.293 202.112 119.295 202.159 119.306C202.207 119.318 202.251 119.34 202.29 119.37C202.585 119.555 202.914 119.679 203.257 119.734C203.601 119.789 203.952 119.774 204.29 119.69C204.63 119.616 204.951 119.474 205.236 119.275C205.521 119.075 205.763 118.821 205.949 118.527C206.135 118.233 206.261 117.906 206.32 117.563C206.378 117.22 206.368 116.869 206.29 116.53C206.214 116.19 206.072 115.868 205.872 115.583C205.671 115.298 205.416 115.056 205.121 114.87C204.827 114.684 204.498 114.558 204.155 114.5C203.811 114.441 203.459 114.452 203.12 114.53C203.067 114.54 203.013 114.538 202.961 114.524C202.909 114.51 202.861 114.485 202.82 114.45C202.78 114.425 202.745 114.393 202.718 114.355C202.691 114.317 202.671 114.274 202.661 114.228C202.651 114.183 202.65 114.135 202.658 114.089C202.667 114.043 202.684 113.999 202.71 113.96L204.54 110.96L200.85 111.8C200.805 111.812 200.758 111.814 200.713 111.808C200.667 111.801 200.623 111.785 200.584 111.76C200.545 111.736 200.511 111.704 200.484 111.666C200.458 111.628 200.439 111.585 200.43 111.54C200.409 111.449 200.424 111.352 200.472 111.272C200.521 111.192 200.599 111.134 200.69 111.11L205.19 110.11C205.281 110.089 205.377 110.104 205.458 110.153C205.538 110.201 205.596 110.279 205.62 110.37C205.635 110.426 205.635 110.484 205.62 110.54C205.596 110.582 205.562 110.617 205.52 110.64Z" fill="#C7C7C7"/>
  <path d="M215.23 115.83L210 117C209.929 117.024 209.851 117.024 209.78 117C209.739 116.981 209.702 116.954 209.672 116.92C209.642 116.886 209.619 116.846 209.605 116.803C209.591 116.76 209.586 116.714 209.59 116.669C209.594 116.623 209.608 116.58 209.63 116.54L213.63 108.32C213.65 108.28 213.678 108.244 213.712 108.215C213.747 108.185 213.787 108.164 213.83 108.151C213.873 108.137 213.918 108.133 213.963 108.138C214.008 108.143 214.051 108.158 214.09 108.18C214.151 108.213 214.203 108.261 214.24 108.32C214.24 108.32 214.24 108.32 214.24 108.37L215.76 114.97L216.41 114.83C216.454 114.818 216.5 114.815 216.545 114.821C216.59 114.827 216.634 114.843 216.673 114.866C216.712 114.889 216.746 114.92 216.773 114.957C216.8 114.994 216.82 115.036 216.83 115.08C216.848 115.17 216.829 115.264 216.779 115.34C216.728 115.417 216.65 115.471 216.56 115.49L215.91 115.63L216.29 117.29C216.31 117.379 216.294 117.472 216.245 117.549C216.196 117.626 216.119 117.68 216.03 117.7C215.941 117.72 215.848 117.704 215.771 117.655C215.694 117.606 215.64 117.529 215.62 117.44L215.23 115.83ZM215.08 115.17L213.78 109.53L210.52 116.22L215.08 115.17Z" fill="#C7C7C7"/>
  <path d="M219.29 116C219.25 115.976 219.216 115.945 219.189 115.908C219.162 115.871 219.142 115.828 219.132 115.783C219.122 115.739 219.121 115.692 219.129 115.647C219.137 115.601 219.155 115.558 219.18 115.52C219.204 115.48 219.237 115.445 219.275 115.418C219.313 115.391 219.356 115.371 219.402 115.361C219.447 115.351 219.495 115.35 219.541 115.358C219.587 115.367 219.631 115.384 219.67 115.41C219.965 115.594 220.294 115.717 220.638 115.772C220.981 115.827 221.332 115.812 221.67 115.73C222.008 115.655 222.328 115.513 222.609 115.312C222.891 115.111 223.129 114.855 223.31 114.56C223.496 114.266 223.622 113.937 223.681 113.594C223.739 113.251 223.729 112.899 223.65 112.56C223.533 112.051 223.268 111.588 222.888 111.23C222.508 110.872 222.03 110.635 221.516 110.548C221.001 110.461 220.472 110.529 219.996 110.743C219.519 110.957 219.117 111.307 218.84 111.75C218.816 111.789 218.785 111.824 218.748 111.851C218.711 111.878 218.668 111.897 218.624 111.908C218.579 111.918 218.532 111.919 218.487 111.911C218.442 111.903 218.398 111.885 218.36 111.86C218.315 111.842 218.277 111.81 218.25 111.77C218.243 111.733 218.243 111.696 218.25 111.66C218.25 111.66 218.25 111.66 218.25 111.59L217.82 107.59C217.81 107.54 217.812 107.489 217.826 107.44C217.84 107.392 217.865 107.347 217.9 107.31C217.949 107.244 218.02 107.198 218.1 107.18L222.59 106.18C222.681 106.159 222.778 106.175 222.857 106.224C222.937 106.274 222.994 106.353 223.015 106.445C223.036 106.536 223.02 106.632 222.97 106.712C222.921 106.792 222.841 106.849 222.75 106.87L218.55 107.87L218.86 110.81C219.292 110.408 219.824 110.129 220.4 110C220.827 109.895 221.27 109.879 221.703 109.951C222.136 110.023 222.55 110.183 222.92 110.42C223.295 110.651 223.619 110.955 223.873 111.314C224.127 111.673 224.307 112.08 224.4 112.51C224.502 112.938 224.517 113.383 224.445 113.817C224.373 114.252 224.215 114.667 223.98 115.04C223.501 115.785 222.752 116.316 221.89 116.52C221.444 116.618 220.983 116.622 220.535 116.532C220.088 116.443 219.664 116.262 219.29 116Z" fill="#C7C7C7"/>
  <path d="M227 107.3C227.181 106.607 227.544 105.974 228.052 105.47C228.561 104.965 229.196 104.606 229.89 104.43C229.976 104.409 230.067 104.422 230.144 104.467C230.221 104.511 230.277 104.584 230.3 104.67C230.322 104.759 230.31 104.853 230.265 104.932C230.221 105.012 230.147 105.072 230.06 105.1C229.481 105.249 228.953 105.551 228.529 105.973C228.105 106.394 227.802 106.922 227.65 107.5C227.458 108.176 227.376 108.878 227.41 109.58C227.627 109.171 227.929 108.813 228.297 108.532C228.664 108.251 229.089 108.052 229.54 107.95C230.165 107.808 230.817 107.852 231.416 108.079C232.016 108.305 232.535 108.703 232.91 109.222C233.284 109.742 233.497 110.36 233.522 111C233.548 111.64 233.384 112.274 233.051 112.821C232.718 113.368 232.232 113.806 231.652 114.078C231.073 114.351 230.426 114.447 229.792 114.354C229.158 114.261 228.566 113.983 228.089 113.556C227.612 113.128 227.272 112.57 227.11 111.95C227.042 111.743 226.985 111.533 226.94 111.32C226.623 109.996 226.644 108.614 227 107.3ZM227.78 111.76C227.794 111.819 227.814 111.876 227.84 111.93C227.85 111.963 227.85 111.997 227.84 112.03C228.063 112.678 228.529 113.214 229.14 113.525C229.751 113.836 230.459 113.897 231.114 113.695C231.769 113.493 232.319 113.045 232.65 112.444C232.98 111.844 233.064 111.138 232.884 110.477C232.703 109.816 232.273 109.251 231.684 108.901C231.094 108.552 230.392 108.445 229.725 108.604C229.058 108.762 228.48 109.174 228.111 109.752C227.742 110.33 227.613 111.028 227.75 111.7L227.78 111.76Z" fill="#C7C7C7"/>
  <path d="M172.721 145.093L88.7202 164.394L89.6697 168.526L173.671 149.225L172.721 145.093Z" fill="#C7C7C7"/>
  <path d="M150.292 159.891L90.8213 173.555L91.7708 177.687L151.241 164.023L150.292 159.891Z" fill="#C7C7C7"/>
  <path d="M187.34 69.0366L145.442 78.6633L146.391 82.7957L188.29 73.1689L187.34 69.0366Z" fill="#C7C7C7"/>
  <path d="M222 79.7198L221 79.1098L220.44 78.7698C221.215 77.5467 221.74 76.1826 221.987 74.7558C222.233 73.3291 222.196 71.8677 221.876 70.4555C221.556 69.0434 220.961 67.7082 220.124 66.5266C219.288 65.345 218.226 64.3402 217 63.5698L217.34 63.0498C217.55 62.7298 217.75 62.4098 217.95 62.0498H218.01C218.38 62.3098 218.76 62.5598 219.12 62.8398C219.861 63.4277 220.532 64.0988 221.12 64.8398C221.821 65.6991 222.4 66.6515 222.84 67.6698C223.05 68.1498 223.21 68.6698 223.39 69.1498C223.45 69.3098 223.71 70.4398 223.71 70.4798C223.77 70.8298 223.83 71.1798 223.87 71.5398C223.999 72.5356 223.999 73.544 223.87 74.5398C223.674 76.0037 223.231 77.4238 222.56 78.7398C222.38 79.0698 222.18 79.3998 222 79.7398V79.7198Z" fill="white"/>
  <path d="M215.14 66.6299C215.45 66.1199 215.77 65.6299 216.14 65.1099C217.833 66.1573 219.131 67.7363 219.83 69.5999C220.351 70.9311 220.551 72.3663 220.414 73.7892C220.276 75.2122 219.806 76.5827 219.04 77.7899L217.51 76.7899C218.554 75.1294 218.896 73.1223 218.461 71.2097C218.026 69.2971 216.85 67.6354 215.19 66.5899L215.14 66.6299Z" fill="white"/>
  <path d="M215.92 75.8599L214.4 74.8599C214.667 74.4396 214.847 73.9707 214.932 73.4802C215.017 72.9896 215.003 72.4872 214.892 72.0019C214.782 71.5166 214.576 71.0581 214.287 70.6527C213.999 70.2472 213.632 69.903 213.21 69.6399L214.21 68.1199C214.837 68.5098 215.38 69.0211 215.807 69.6239C216.234 70.2267 216.535 70.9087 216.695 71.6298C216.854 72.3509 216.868 73.0966 216.735 73.8231C216.601 74.5495 216.325 75.242 215.92 75.8599Z" fill="white"/>
  <path d="M50.7202 441.6L131.79 441.36L212.86 441.27L375 441.11L537.14 441.27L618.21 441.36L699.28 441.6L618.21 441.85L537.14 441.94L375 442.1L212.86 441.94L131.79 441.85L50.7202 441.6Z" fill="#263238"/>
  <path d="M94.2703 274.51C94.2703 274.51 70.7503 271.21 76.2703 242.81C76.2403 242.81 102.53 248.71 94.2703 274.51Z" fill="#14B889"/>
  <path opacity="0.1" d="M94.2703 274.51C94.2703 274.51 70.7503 271.21 76.2703 242.81C76.2403 242.81 102.53 248.71 94.2703 274.51Z" fill="black"/>
  <path d="M93.0801 268.58C92.6183 267.144 92.0843 265.732 91.4801 264.35C91.4801 264.16 91.4801 263.98 91.4201 263.81C91.4201 263.42 91.3501 263.03 91.3201 262.64C91.2601 261.79 91.2001 260.94 91.1501 260.09C91.0501 258.4 90.9401 256.7 90.9201 255C90.9201 254.91 90.7801 254.91 90.7701 255C90.7701 256.7 90.7701 258.4 90.7701 260.1C90.7701 260.95 90.8501 261.8 90.9101 262.65C90.9101 262.83 90.9101 263.02 90.9101 263.21C89.5858 260.382 88.0059 257.681 86.1901 255.14C85.3801 254.01 84.5301 252.93 83.6201 251.88C82.7101 250.83 81.6901 249.79 80.7401 248.73C80.6801 248.66 80.5801 248.73 80.6401 248.83C82.328 250.692 83.8473 252.7 85.1801 254.83C85.8901 255.91 86.5701 257.02 87.1801 258.15L86.9601 258.06L86.1201 257.72L84.3001 257C83.0401 256.53 81.7701 256.07 80.5201 255.59C80.4401 255.59 80.3901 255.69 80.4601 255.72C81.7201 256.22 82.9501 256.72 84.1901 257.28L86.0101 258.06C86.3201 258.2 86.6201 258.32 86.9301 258.44C87.1264 258.54 87.3348 258.614 87.5501 258.66C88.0301 259.52 88.5501 260.37 88.9301 261.24C90.0234 263.441 90.9851 265.705 91.8101 268.02C91.8101 268.18 91.9201 268.34 91.9801 268.51C91.3601 268.154 90.715 267.843 90.0501 267.58C89.2401 267.2 88.4201 266.84 87.6101 266.47C85.9601 265.71 84.3201 264.94 82.7401 264.05C82.6601 264 82.5901 264.13 82.6701 264.17C84.2901 265.06 85.8701 266 87.4901 266.88C88.3001 267.32 89.1201 267.74 89.9401 268.14C90.6278 268.546 91.3729 268.846 92.1501 269.03C92.9401 271.181 93.4607 273.421 93.7001 275.7C93.9601 278.91 93.9301 282.15 94.0001 285.37H94.0901C94.3201 282.45 94.4601 279.5 94.4701 276.57C94.4366 273.849 93.9674 271.152 93.0801 268.58Z" fill="#263238"/>
  <path d="M89.4601 251.88C89.2344 253.537 89.1574 255.21 89.2301 256.88C89.2301 256.88 89.2901 256.88 89.3001 256.88C89.3901 255.22 89.4101 253.57 89.6001 251.88C89.6101 251.82 89.4701 251.79 89.4601 251.88Z" fill="#263238"/>
  <path d="M82.7303 253.3C81.6862 252.898 80.6818 252.399 79.7303 251.81C79.6503 251.76 79.5803 251.89 79.6603 251.94C80.5846 252.569 81.5951 253.061 82.6603 253.4C82.7503 253.41 82.7903 253.32 82.7303 253.3Z" fill="#263238"/>
  <path d="M95.0003 319.59C95.0003 316.99 94.9303 314.39 94.9003 311.79C94.9003 303.16 94.7803 294.53 94.6303 285.89C94.497 279.043 94.337 272.193 94.1503 265.34C94.1489 265.321 94.1426 265.303 94.1321 265.287C94.1216 265.271 94.1072 265.259 94.0903 265.25V259.63C94.0903 259.63 94.0303 259.56 93.9803 259.57C93.9303 259.58 93.8703 259.57 93.8703 259.64C93.8703 261.51 93.8703 263.39 93.8703 265.26C93.8648 265.273 93.8619 265.286 93.8619 265.3C93.8619 265.314 93.8648 265.327 93.8703 265.34C93.5203 277.54 93.2103 289.74 93.1403 301.94C93.1403 304.42 93.1403 306.94 93.1403 309.38C93.0536 317.34 93.0203 325.293 93.0403 333.24C93.0403 334.51 93.0403 335.78 93.0403 337.04C93.0403 344.32 93.1103 351.6 93.1103 358.88C93.1103 359.27 93.5503 359.46 94.0103 359.48C94.4703 359.5 95.1003 359.29 95.1003 358.84C95.1003 350.84 95.1603 342.84 95.1603 334.77C95.0003 329.71 95.0603 324.65 95.0003 319.59Z" fill="#263238"/>
  <path d="M85.2002 311.69C85.2002 311.69 73.8802 303.31 63.1402 309C52.4002 314.69 50.7202 336.5 50.7202 336.5C50.7202 336.5 66.4902 338.75 76.4202 329.3C86.0002 320.17 85.2002 311.69 85.2002 311.69Z" fill="#14B889"/>
  <path d="M88.28 312.21C86.2006 311.389 83.9501 311.097 81.73 311.36C81.2709 311.278 80.8062 311.232 80.34 311.22L78.75 311.1L75.45 310.87C73.21 310.7 70.97 310.57 68.75 310.34C68.67 310.34 68.65 310.47 68.75 310.48C70.96 310.76 73.15 311.08 75.36 311.3C76.5 311.42 77.64 311.53 78.78 311.61L79.61 311.7C79.27 311.77 78.93 311.85 78.61 311.94C76.8255 312.452 75.0968 313.143 73.45 314C72.56 314.16 71.68 314.41 70.8 314.61C69.4 314.94 68.01 315.3 66.62 315.67C63.87 316.39 61.15 317.2 58.42 317.99C58.34 317.99 58.42 318.15 58.42 318.13C61.14 317.46 63.88 316.85 66.61 316.2L70.61 315.2C70.95 315.11 71.3 315.03 71.61 314.96C68.5812 316.844 65.8792 319.208 63.61 321.96C61.3952 324.658 59.518 327.617 58.02 330.77C58.02 330.85 58.09 330.93 58.14 330.85C60.0119 327.619 62.2942 324.645 64.93 322L64.78 322.45L64.15 324.45C63.74 325.79 63.31 327.12 62.91 328.45C62.91 328.469 62.9174 328.486 62.9305 328.5C62.9437 328.513 62.9615 328.52 62.98 328.52C62.9986 328.52 63.0164 328.513 63.0295 328.5C63.0426 328.486 63.05 328.469 63.05 328.45C63.53 327.16 63.98 325.86 64.44 324.56C64.66 323.92 64.89 323.29 65.11 322.65C65.23 322.32 65.34 321.99 65.45 321.65C65.4806 321.545 65.5174 321.441 65.56 321.34C66.8178 320.115 68.1539 318.972 69.56 317.92C71.4234 316.55 73.4363 315.396 75.56 314.48L75.44 315.06L75.11 316.61C74.89 317.68 74.68 318.75 74.47 319.83C74.05 322.02 73.78 324.23 73.37 326.42C73.37 326.51 73.49 326.55 73.51 326.42C74.02 324.22 74.67 322.05 75.16 319.84C75.41 318.74 75.66 317.63 75.89 316.53C75.99 316.01 76.1 315.53 76.2 314.98C76.2678 314.693 76.3212 314.403 76.36 314.11C76.57 314.03 76.77 313.93 76.97 313.86C79.97 312.76 83.22 311.96 86.39 312.57C87.8858 312.848 89.2898 313.491 90.4777 314.442C91.6656 315.393 92.6007 316.622 93.2 318.02C93.3 318.27 93.69 318.12 93.63 317.86C93.2345 316.569 92.5457 315.388 91.6176 314.408C90.6895 313.428 89.5472 312.675 88.28 312.21Z" fill="#263238"/>
  <path d="M71.0005 321.54L70.0005 325.84C69.6478 327.215 69.3839 328.611 69.2104 330.02C69.2104 330.08 69.2904 330.08 69.3104 330.02C69.7335 328.639 70.0675 327.233 70.3104 325.81C70.5904 324.39 70.8604 322.98 71.1404 321.56C71.1431 321.541 71.1383 321.523 71.127 321.508C71.1158 321.493 71.099 321.483 71.0805 321.48C71.0619 321.477 71.043 321.482 71.028 321.493C71.013 321.505 71.0031 321.521 71.0005 321.54Z" fill="#263238"/>
  <path d="M60.0004 325.18C58.5604 325.91 57.1604 326.74 55.6504 327.34C55.5604 327.34 55.6504 327.52 55.7104 327.47C57.1884 326.803 58.6304 326.058 60.0304 325.24C60.0304 325.24 60.0504 325.16 60.0004 325.18Z" fill="#263238"/>
  <path d="M87.7403 296.3C87.7403 296.3 73.9103 297.18 67.4803 288.06C61.0503 278.94 62.4803 265.92 62.4803 265.92C62.4803 265.92 77.0103 267.68 82.7803 274.23C88.5503 280.78 87.7403 296.3 87.7403 296.3Z" fill="#14B889"/>
  <path d="M94.23 309.94C93.75 308.46 93.16 307 92.6 305.55C92.04 304.1 91.49 302.77 90.88 301.41C89.6472 298.619 88.2618 295.899 86.73 293.26C85.73 291.58 84.73 289.95 83.64 288.34C83.64 288.09 83.57 287.85 83.53 287.6C83.46 287.17 83.4 286.75 83.34 286.32C83.2 285.44 83.05 284.57 82.9 283.7C82.58 281.79 82.19 279.89 81.9 277.98C81.9 277.89 81.75 277.89 81.76 277.98C82.04 279.87 82.23 281.77 82.49 283.66C82.62 284.58 82.74 285.51 82.88 286.44C82.94 286.77 82.99 287.11 83.04 287.44C80.9321 284.355 78.6483 281.393 76.2 278.57C75.87 278.19 75.53 277.81 75.2 277.44C75.1653 277.33 75.1219 277.223 75.07 277.12L74.77 276.33L74.17 274.68C73.79 273.6 73.44 272.5 73.17 271.39C73.1743 271.379 73.1758 271.368 73.1746 271.357C73.1734 271.345 73.1694 271.334 73.163 271.325C73.1566 271.315 73.1479 271.308 73.1378 271.302C73.1277 271.297 73.1165 271.294 73.105 271.294C73.0936 271.294 73.0823 271.297 73.0722 271.302C73.0621 271.308 73.0535 271.315 73.0471 271.325C73.0407 271.334 73.0367 271.345 73.0354 271.357C73.0342 271.368 73.0358 271.379 73.04 271.39C73.32 272.53 73.61 273.66 73.94 274.78C74.1 275.32 74.28 275.86 74.47 276.39L74.57 276.66C72.8 274.73 70.96 272.87 69.1 271.04C69.03 270.97 68.93 271.04 69 271.14C72.5718 274.881 75.8483 278.893 78.8 283.14C78.4728 283.031 78.1388 282.944 77.8 282.88C76.74 282.67 75.66 282.52 74.59 282.38C72.33 282.1 70.09 281.81 67.84 281.46C67.8215 281.46 67.8037 281.467 67.7905 281.48C67.7774 281.494 67.77 281.511 67.77 281.53C67.77 281.549 67.7774 281.566 67.7905 281.579C67.8037 281.593 67.8215 281.6 67.84 281.6C69.98 282.02 72.11 282.5 74.23 282.99C75.23 283.22 76.23 283.42 77.23 283.62C78.0517 283.794 78.8603 284.024 79.65 284.31C79.88 284.63 80.11 284.94 80.33 285.31C81.33 286.78 82.33 288.31 83.27 289.81L81.86 289.53C80.79 289.33 79.72 289.13 78.65 288.96C76.54 288.61 74.43 288.24 72.34 287.77C72.3215 287.77 72.3037 287.777 72.2905 287.79C72.2774 287.804 72.27 287.821 72.27 287.84C72.27 287.859 72.2774 287.876 72.2905 287.889C72.3037 287.903 72.3215 287.91 72.34 287.91C74.45 288.4 76.55 288.98 78.65 289.54C79.65 289.81 80.65 290.06 81.65 290.28L83.19 290.62C83.3936 290.67 83.6009 290.704 83.81 290.72C85.81 294 87.73 297.35 89.48 300.72C90.26 302.23 91 303.72 91.72 305.28C92.44 306.84 93.09 308.45 93.72 310.04C93.84 310.42 94.34 310.29 94.23 309.94Z" fill="#263238"/>
  <path d="M80.0802 278.16C79.8102 276.84 79.5302 275.53 79.2402 274.16C79.2402 274.07 79.0902 274.16 79.1102 274.16C79.3702 275.46 79.6202 276.76 79.8502 278.06C80.048 279.362 80.3117 280.654 80.6402 281.93C80.5397 280.662 80.3526 279.402 80.0802 278.16Z" fill="#263238"/>
  <path d="M72.0005 277.78C71.3605 277.46 70.6805 277.2 70.0005 276.94L69.0005 276.53L68.4705 276.31C68.2666 276.254 68.0714 276.169 67.8905 276.06C67.7805 275.98 67.7205 276.16 67.8205 276.18C68.0259 276.236 68.2239 276.317 68.4105 276.42L68.9305 276.66L69.9305 277.11C70.583 277.414 71.2505 277.684 71.9305 277.92C72.0005 277.94 72.0905 277.81 72.0005 277.78Z" fill="#263238"/>
  <path d="M101.9 285.42C101.9 285.42 110.27 269.79 123 267.37C135.73 264.95 143.53 278.05 143.53 278.05C143.53 278.05 134.24 289.91 122.53 291.98C110.82 294.05 101.9 285.42 101.9 285.42Z" fill="#14B889"/>
  <path d="M131.53 274.38C128.209 273.928 124.839 273.968 121.53 274.5L122.1 274.19L124.92 272.74C126.87 271.666 128.872 270.692 130.92 269.82C131.01 269.82 130.92 269.64 130.86 269.69C128.86 270.61 126.8 271.39 124.81 272.31C123.81 272.77 122.81 273.25 121.81 273.76C121.18 274.1 120.49 274.41 119.87 274.81C117.073 275.37 114.356 276.274 111.78 277.5L113.37 275.76C114.56 274.47 115.72 273.1 117.03 271.92C117.1 271.86 117.03 271.76 116.92 271.82C115.59 273.03 114.18 274.15 112.92 275.41C112.29 276.02 111.69 276.65 111.11 277.3C110.82 277.63 110.53 277.96 110.25 278.3C105.875 280.638 102.075 283.919 99.1227 287.905C96.1706 291.891 94.1409 296.484 93.1802 301.35C93.1802 301.44 93.2902 301.49 93.3102 301.4C95.1027 295.44 98.3146 290.005 102.67 285.56C107.352 280.778 113.251 277.366 119.73 275.69C123.575 274.711 127.552 274.349 131.51 274.62C131.68 274.64 131.69 274.4 131.53 274.38Z" fill="#263238"/>
  <path opacity="0.1" d="M143.53 278.05C143.53 278.05 134.24 289.91 122.53 291.98C113.62 293.56 106.29 288.91 103.31 286.62L102.67 285.57C102.67 285.57 108.67 280.49 120.1 277.57C131.53 274.65 143.53 278.05 143.53 278.05Z" fill="black"/>
  <path d="M124.14 268.8C123.164 269.372 122.219 269.996 121.31 270.67C120.423 271.343 119.599 272.096 118.85 272.92C118.79 272.99 118.85 273.08 118.96 273.02C119.81 272.29 120.66 271.55 121.54 270.86C122.39 270.159 123.281 269.511 124.21 268.92C124.29 268.88 124.22 268.75 124.14 268.8Z" fill="#263238"/>
  <path d="M131.13 271.45C130.65 271.65 130.13 271.82 129.7 272.01L128.28 272.6C128.18 272.6 128.23 272.81 128.33 272.76L129.75 272.19C130.23 272 130.69 271.78 131.17 271.59C131.25 271.55 131.21 271.41 131.13 271.45Z" fill="#263238"/>
  <path d="M100.23 305.1C100.23 305.1 102.46 320.61 114.13 326.03C125.8 331.45 140 326 140 326C140 326 134.41 292.48 100.23 305.1Z" fill="#14B889"/>
  <path d="M132 316C130.92 315.87 129.85 315.69 128.79 315.49L127.22 315.2L126.4 315.03C126.09 314.74 125.78 314.44 125.46 314.16C123.251 312.217 120.864 310.486 118.33 308.99C116.949 308.172 115.52 307.437 114.05 306.79H114.27L118.11 306.96C120.67 307.08 123.23 307.14 125.79 307.3C125.88 307.3 125.88 307.16 125.79 307.16C123.23 306.98 120.67 306.7 118.11 306.48L114.38 306.15L112.46 305.98L111.97 305.93C111.3 305.68 110.63 305.45 109.97 305.24C106.791 304.146 103.371 303.955 100.09 304.69C97.1602 305.44 94.2302 307.36 93.4702 310.46C93.4702 310.56 93.6102 310.64 93.6602 310.53C94.7502 307.95 97.6602 306.65 100.21 306.11C101.952 305.778 103.736 305.741 105.49 306C105.608 306.801 105.805 307.588 106.08 308.35C106.4 309.44 106.72 310.53 107.08 311.62C107.74 313.8 108.47 315.96 109.08 318.14C109.076 318.151 109.074 318.162 109.076 318.173C109.077 318.185 109.081 318.196 109.087 318.205C109.094 318.215 109.102 318.222 109.112 318.228C109.123 318.233 109.134 318.236 109.145 318.236C109.157 318.236 109.168 318.233 109.178 318.228C109.188 318.222 109.197 318.215 109.203 318.205C109.21 318.196 109.214 318.185 109.215 318.173C109.216 318.162 109.214 318.151 109.21 318.14C108.67 315.96 108.21 313.77 107.69 311.58C107.43 310.51 107.16 309.45 106.9 308.38C106.753 307.631 106.556 306.893 106.31 306.17C107.323 306.354 108.324 306.595 109.31 306.89C111.109 307.422 112.873 308.066 114.59 308.82C114.76 309.93 115.01 311.02 115.26 312.11C115.58 313.48 115.94 314.84 116.37 316.18C116.375 316.193 116.384 316.204 116.396 316.212C116.408 316.22 116.421 316.224 116.435 316.224C116.449 316.224 116.463 316.22 116.474 316.212C116.486 316.204 116.495 316.193 116.5 316.18C116.505 316.093 116.505 316.007 116.5 315.92C116.24 314.65 115.96 313.39 115.69 312.12C115.47 311.12 115.28 310.07 115.05 309.05C116.502 309.698 117.921 310.419 119.3 311.21C119.3 311.52 119.41 311.85 119.46 312.13C119.54 312.67 119.64 313.2 119.73 313.73C119.95 314.92 120.19 316.11 120.48 317.3C121.007 319.586 121.675 321.837 122.48 324.04C122.473 324.054 122.47 324.069 122.47 324.085C122.47 324.101 122.473 324.116 122.48 324.13L122.55 324.21C122.55 324.27 122.68 324.21 122.67 324.14C122.13 321.84 121.51 319.56 121.01 317.25C120.76 316.1 120.5 314.95 120.27 313.79L119.94 312.06C119.94 311.89 119.89 311.72 119.86 311.54C124.141 314.066 128.015 317.225 131.35 320.91C131.43 321 131.6 320.91 131.52 320.77C130.652 319.593 129.724 318.462 128.74 317.38C128.16 316.75 127.55 316.15 126.93 315.55H127.12C127.67 315.64 128.21 315.72 128.76 315.79C129.84 315.94 130.92 316.04 132 316.16C132 316.09 132.06 316 132 316Z" fill="#263238"/>
  <path d="M123.77 321.2C123.77 321.07 123.77 320.93 123.71 320.8C123.653 320.633 123.606 320.463 123.57 320.29C123.33 319.29 123.13 318.21 122.94 317.16C122.94 317.09 122.81 317.11 122.82 317.16C122.887 318.549 123.185 319.918 123.7 321.21C123.7 321.21 123.79 321.21 123.78 321.21L123.77 321.2Z" fill="#263238"/>
  <path d="M114 321C114 321 114 320.94 113.93 320.94C113.61 319.57 113.29 318.19 113.01 316.81C112.86 316.08 112.71 315.36 112.57 314.63C112.49 314.23 112.42 313.84 112.35 313.45C112.317 313.106 112.233 312.769 112.1 312.45C112.095 312.437 112.086 312.426 112.075 312.418C112.063 312.41 112.049 312.406 112.035 312.406C112.021 312.406 112.008 312.41 111.996 312.418C111.984 312.426 111.975 312.437 111.97 312.45C111.958 313.154 112.056 313.856 112.26 314.53C112.4 315.29 112.55 316.05 112.72 316.8C113.06 318.33 113.44 319.85 113.87 321.36C113.87 321.381 113.879 321.402 113.894 321.417C113.909 321.432 113.929 321.44 113.95 321.44C113.972 321.44 113.992 321.432 114.007 321.417C114.022 321.402 114.03 321.381 114.03 321.36L114 321Z" fill="#263238"/>
  <path d="M130.91 311.48C128.78 311.19 126.65 310.88 124.51 310.62C124.42 310.62 124.39 310.75 124.51 310.76C126.64 311.07 128.77 311.34 130.9 311.62C131 311.63 131 311.49 130.91 311.48Z" fill="#263238"/>
  <path d="M94.2503 268.73C94.2503 268.73 87.1203 237.42 120.75 224.73C120.75 224.75 130.07 266 94.2503 268.73Z" fill="#14B889"/>
  <path d="M101.51 251L101.87 250.78L103.78 249.72L107.68 247.54C110.24 246.1 112.78 244.61 115.36 243.2C115.44 243.2 115.36 243.04 115.29 243.08C112.7 244.49 110.06 245.81 107.46 247.18L103.6 249.18L102 250C103.12 247.88 104.32 245.79 105.64 243.78C107.39 241.1 109.32 238.55 111.33 236.05C111.344 236.027 111.349 235.999 111.345 235.973C111.341 235.946 111.328 235.921 111.309 235.903C111.289 235.884 111.264 235.873 111.237 235.871C111.21 235.868 111.183 235.875 111.16 235.89C108.207 238.755 105.596 241.953 103.38 245.42C103.38 245.31 103.38 245.2 103.38 245.1C103.38 244.32 103.44 243.54 103.45 242.76C103.45 241.23 103.45 239.7 103.45 238.17C103.45 238.08 103.31 238.09 103.3 238.17C103.24 239.67 103.06 241.17 102.97 242.67C102.97 243.43 102.9 244.17 102.88 244.93C102.88 245.33 102.88 245.79 102.88 246.24C102.19 247.34 101.52 248.46 100.88 249.59C99.7543 251.631 98.7525 253.738 97.8803 255.9C97.8803 255.12 97.8004 254.34 97.7504 253.56C97.6504 251.85 97.4404 250.14 97.3704 248.42C97.3704 248.402 97.363 248.384 97.3498 248.371C97.3367 248.357 97.3189 248.35 97.3004 248.35C97.2818 248.35 97.264 248.357 97.2509 248.371C97.2377 248.384 97.2304 248.402 97.2304 248.42C97.2304 250.13 97.2304 251.85 97.2304 253.56C97.2304 254.42 97.2903 255.28 97.3403 256.13L97.4004 257.13C96.3312 259.926 95.482 262.802 94.8604 265.73C94.2848 268.857 93.8676 272.011 93.6104 275.18C93.9637 272.325 94.5592 269.505 95.3904 266.75C95.8104 265.28 96.2504 263.81 96.7204 262.35C98.1204 261.69 99.4603 260.87 100.81 260.12C102.16 259.37 103.63 258.58 105.03 257.81C107.84 256.27 110.64 254.7 113.53 253.34C113.62 253.34 113.53 253.18 113.46 253.22C110.53 254.55 107.57 255.81 104.69 257.22C103.26 257.94 101.85 258.71 100.45 259.49C99.2803 260.15 98.0804 260.81 96.9704 261.57C97.2904 260.57 97.6304 259.62 97.9704 258.66C99.0804 256.08 100.23 253.49 101.51 251Z" fill="#263238"/>
  <path d="M98.6803 243.81C98.6746 243.795 98.6644 243.781 98.651 243.772C98.6375 243.763 98.6216 243.758 98.6053 243.758C98.5889 243.758 98.573 243.763 98.5596 243.772C98.5462 243.781 98.536 243.795 98.5303 243.81C98.6603 245.59 98.7203 247.38 98.9003 249.16C98.9003 249.26 99.0703 249.26 99.0603 249.16C99.0003 247.38 98.8103 245.6 98.6803 243.81Z" fill="#263238"/>
  <path d="M114.8 249.79C112.7 250.64 110.58 251.45 108.48 252.32C108.42 252.32 108.48 252.44 108.48 252.42C110.61 251.62 112.7 250.76 114.82 249.93C114.93 249.9 114.89 249.76 114.8 249.79Z" fill="#263238"/>
  <path d="M118 235.35C115.938 236.298 113.934 237.37 112 238.56C111.979 238.572 111.964 238.592 111.957 238.615C111.95 238.639 111.953 238.664 111.965 238.685C111.977 238.706 111.997 238.722 112.021 238.728C112.044 238.735 112.069 238.732 112.09 238.72C114.09 237.58 116.03 236.48 118.09 235.48C118.16 235.44 118.08 235.32 118 235.35Z" fill="#263238"/>
  <path d="M117.49 336.43H68.98V387.56H117.49V336.43Z" fill="#455A64"/>
  <path d="M68.1304 354.52H65.6504V442.1H68.1304V354.52Z" fill="#263238"/>
  <path d="M120.57 354.52H118.09V442.1H120.57V354.52Z" fill="#263238"/>
  <path d="M95.6704 354.52H93.1904V442.1H95.6704V354.52Z" fill="#263238"/>
  <path d="M119.33 384.28H66.8901V391.36H119.33V384.28Z" fill="#263238"/>
  <path d="M681.37 419.29H68.6299V441.61H681.37V419.29Z" fill="#C7C7C7"/>
  <path d="M627.05 82.0698H122.94V419.29H627.05V82.0698Z" fill="#DBDBDB"/>
  <path d="M623.4 86.1799H126.61V415.17H623.4V86.1799Z" fill="#263238"/>
  <path d="M601.39 107.33H148.6V394.02H601.39V107.33Z" fill="white"/>
  <path d="M674.46 121.29H75.54L121.77 81.9299H626.36L674.46 121.29Z" fill="#14B889"/>
  <path d="M206 81.9299L167.68 121.29H121.61L163.44 81.9299H206Z" fill="#EBEBEB"/>
  <path d="M287.53 81.9299L259.82 121.29H213.75L246.68 81.9299H287.53Z" fill="#EBEBEB"/>
  <path d="M356.74 81.9299L351.96 121.29H305.89L320.59 81.9299H356.74Z" fill="#EBEBEB"/>
  <path d="M582.32 121.29L542.56 81.9299H585.11L628.39 121.29H582.32Z" fill="#EBEBEB"/>
  <path d="M490.18 121.29L465.6 81.9299H503.09L536.25 121.29H490.18Z" fill="#EBEBEB"/>
  <path d="M398.04 121.29L391.28 81.9299H427.45L444.11 121.29H398.04Z" fill="#EBEBEB"/>
  <path d="M98.5698 144.61C92.4698 144.61 86.6197 142.187 82.3064 137.873C77.993 133.56 75.5698 127.71 75.5698 121.61V121.33H121.64V121.61C121.64 124.636 121.043 127.633 119.882 130.428C118.722 133.223 117.022 135.761 114.879 137.898C112.735 140.035 110.192 141.727 107.393 142.879C104.594 144.031 101.596 144.619 98.5698 144.61Z" fill="#14B889"/>
  <path opacity="0.1" d="M98.5698 144.61C92.4698 144.61 86.6197 142.187 82.3064 137.873C77.993 133.56 75.5698 127.71 75.5698 121.61V121.33H121.64V121.61C121.64 124.636 121.043 127.633 119.882 130.428C118.722 133.223 117.022 135.761 114.879 137.898C112.735 140.035 110.192 141.727 107.393 142.879C104.594 144.031 101.596 144.619 98.5698 144.61Z" fill="black"/>
  <path d="M144.64 144.61C138.54 144.61 132.69 142.187 128.376 137.873C124.063 133.56 121.64 127.71 121.64 121.61V121.33H167.71V121.61C167.71 124.636 167.112 127.633 165.952 130.428C164.792 133.223 163.092 135.761 160.948 137.898C158.805 140.035 156.261 141.727 153.463 142.879C150.664 144.031 147.666 144.619 144.64 144.61Z" fill="#DBDBDB"/>
  <path d="M190.72 144.61C184.62 144.61 178.77 142.187 174.456 137.873C170.143 133.56 167.72 127.71 167.72 121.61V121.33H213.79V121.61C213.79 124.636 213.193 127.633 212.032 130.428C210.872 133.223 209.172 135.761 207.028 137.898C204.885 140.035 202.342 141.727 199.543 142.879C196.744 144.031 193.746 144.619 190.72 144.61Z" fill="#14B889"/>
  <path opacity="0.1" d="M190.72 144.61C184.62 144.61 178.77 142.187 174.456 137.873C170.143 133.56 167.72 127.71 167.72 121.61V121.33H213.79V121.61C213.79 124.636 213.193 127.633 212.032 130.428C210.872 133.223 209.172 135.761 207.028 137.898C204.885 140.035 202.342 141.727 199.543 142.879C196.744 144.031 193.746 144.619 190.72 144.61Z" fill="black"/>
  <path d="M236.79 144.61C230.69 144.61 224.84 142.187 220.527 137.873C216.213 133.56 213.79 127.71 213.79 121.61V121.33H259.86V121.61C259.86 124.636 259.263 127.633 258.103 130.428C256.942 133.223 255.242 135.761 253.099 137.898C250.956 140.035 248.412 141.727 245.613 142.879C242.815 144.031 239.816 144.619 236.79 144.61Z" fill="#DBDBDB"/>
  <path d="M282.86 144.61C276.76 144.61 270.91 142.187 266.596 137.873C262.283 133.56 259.86 127.71 259.86 121.61V121.33H305.93V121.61C305.93 124.636 305.333 127.633 304.172 130.428C303.012 133.223 301.312 135.761 299.169 137.898C297.025 140.035 294.482 141.727 291.683 142.879C288.885 144.031 285.886 144.619 282.86 144.61Z" fill="#14B889"/>
  <path opacity="0.1" d="M282.86 144.61C276.76 144.61 270.91 142.187 266.596 137.873C262.283 133.56 259.86 127.71 259.86 121.61V121.33H305.93V121.61C305.93 124.636 305.333 127.633 304.172 130.428C303.012 133.223 301.312 135.761 299.169 137.898C297.025 140.035 294.482 141.727 291.683 142.879C288.885 144.031 285.886 144.619 282.86 144.61Z" fill="black"/>
  <path d="M328.93 144.61C322.83 144.61 316.98 142.187 312.666 137.873C308.353 133.56 305.93 127.71 305.93 121.61V121.33H352V121.61C352 124.636 351.402 127.633 350.242 130.428C349.082 133.223 347.382 135.761 345.238 137.898C343.095 140.035 340.551 141.727 337.753 142.879C334.954 144.031 331.956 144.619 328.93 144.61Z" fill="#DBDBDB"/>
  <path d="M375 144.61C368.9 144.61 363.05 142.187 358.737 137.873C354.423 133.56 352 127.71 352 121.61V121.33H398V121.61C398 127.71 395.577 133.56 391.263 137.873C386.95 142.187 381.1 144.61 375 144.61Z" fill="#14B889"/>
  <path opacity="0.1" d="M375 144.61C368.9 144.61 363.05 142.187 358.737 137.873C354.423 133.56 352 127.71 352 121.61V121.33H398V121.61C398 127.71 395.577 133.56 391.263 137.873C386.95 142.187 381.1 144.61 375 144.61Z" fill="black"/>
  <path d="M421.07 144.61C414.97 144.61 409.12 142.187 404.806 137.873C400.493 133.56 398.07 127.71 398.07 121.61V121.33H444.14V121.61C444.14 124.636 443.543 127.633 442.382 130.428C441.222 133.223 439.522 135.761 437.379 137.898C435.235 140.035 432.692 141.727 429.893 142.879C427.094 144.031 424.096 144.619 421.07 144.61Z" fill="#DBDBDB"/>
  <path d="M467.14 144.61C461.04 144.61 455.19 142.187 450.876 137.873C446.563 133.56 444.14 127.71 444.14 121.61V121.33H490.21V121.61C490.21 124.636 489.612 127.633 488.452 130.428C487.292 133.223 485.592 135.761 483.448 137.898C481.305 140.035 478.761 141.727 475.963 142.879C473.164 144.031 470.166 144.619 467.14 144.61Z" fill="#14B889"/>
  <path opacity="0.1" d="M467.14 144.61C461.04 144.61 455.19 142.187 450.876 137.873C446.563 133.56 444.14 127.71 444.14 121.61V121.33H490.21V121.61C490.21 124.636 489.612 127.633 488.452 130.428C487.292 133.223 485.592 135.761 483.448 137.898C481.305 140.035 478.761 141.727 475.963 142.879C473.164 144.031 470.166 144.619 467.14 144.61Z" fill="black"/>
  <path d="M513.21 144.61C507.11 144.61 501.26 142.187 496.947 137.873C492.633 133.56 490.21 127.71 490.21 121.61V121.33H536.28V121.61C536.28 124.636 535.683 127.633 534.523 130.428C533.362 133.223 531.662 135.761 529.519 137.898C527.376 140.035 524.832 141.727 522.033 142.879C519.235 144.031 516.236 144.619 513.21 144.61Z" fill="#DBDBDB"/>
  <path d="M559.28 144.61C553.18 144.61 547.33 142.187 543.016 137.873C538.703 133.56 536.28 127.71 536.28 121.61V121.33H582.35V121.61C582.35 124.636 581.753 127.633 580.592 130.428C579.432 133.223 577.732 135.761 575.589 137.898C573.445 140.035 570.902 141.727 568.103 142.879C565.304 144.031 562.306 144.619 559.28 144.61Z" fill="#14B889"/>
  <path opacity="0.1" d="M559.28 144.61C553.18 144.61 547.33 142.187 543.016 137.873C538.703 133.56 536.28 127.71 536.28 121.61V121.33H582.35V121.61C582.35 124.636 581.753 127.633 580.592 130.428C579.432 133.223 577.732 135.761 575.589 137.898C573.445 140.035 570.902 141.727 568.103 142.879C565.304 144.031 562.306 144.619 559.28 144.61Z" fill="black"/>
  <path d="M605.36 144.61C599.26 144.61 593.41 142.187 589.096 137.873C584.783 133.56 582.36 127.71 582.36 121.61V121.33H628.43V121.61C628.43 124.636 627.833 127.633 626.672 130.428C625.512 133.223 623.812 135.761 621.669 137.898C619.525 140.035 616.982 141.727 614.183 142.879C611.385 144.031 608.386 144.619 605.36 144.61Z" fill="#DBDBDB"/>
  <path d="M651.43 144.61C645.33 144.61 639.48 142.187 635.166 137.873C630.853 133.56 628.43 127.71 628.43 121.61V121.33H674.5V121.61C674.5 124.636 673.902 127.633 672.742 130.428C671.582 133.223 669.882 135.761 667.738 137.898C665.595 140.035 663.052 141.727 660.253 142.879C657.454 144.031 654.456 144.619 651.43 144.61Z" fill="#14B889"/>
  <path opacity="0.1" d="M651.43 144.61C645.33 144.61 639.48 142.187 635.166 137.873C630.853 133.56 628.43 127.71 628.43 121.61V121.33H674.5V121.61C674.5 124.636 673.902 127.633 672.742 130.428C671.582 133.223 669.882 135.761 667.738 137.898C665.595 140.035 663.052 141.727 660.253 142.879C657.454 144.031 654.456 144.619 651.43 144.61Z" fill="black"/>
  <path d="M671.42 134.76L671.5 134.91C671.467 134.895 671.439 134.871 671.42 134.84C671.375 134.817 671.331 134.79 671.29 134.76H671.42Z" fill="#14B889"/>
  <path d="M351.96 184.63H195V341.59H351.96V184.63Z" fill="#14B889"/>
  <path d="M317.83 285.22H250.64C250.023 285.224 249.421 285.032 248.92 284.673C248.419 284.314 248.044 283.805 247.85 283.22L228.65 224.52H213C212.251 224.476 211.548 224.148 211.033 223.602C210.518 223.057 210.231 222.335 210.231 221.585C210.231 220.835 210.518 220.113 211.033 219.568C211.548 219.022 212.251 218.694 213 218.65H230.79C231.406 218.648 232.008 218.839 232.509 219.199C233.01 219.558 233.384 220.065 233.58 220.65L252.77 279.34H317.84C318.589 279.384 319.293 279.712 319.807 280.258C320.322 280.803 320.609 281.525 320.609 282.275C320.609 283.025 320.322 283.747 319.807 284.292C319.293 284.838 318.589 285.166 317.84 285.21L317.83 285.22Z" fill="white"/>
  <path d="M311.31 307.58C309.443 307.58 307.618 307.026 306.066 305.989C304.513 304.952 303.303 303.477 302.589 301.752C301.874 300.028 301.687 298.129 302.052 296.298C302.416 294.467 303.315 292.785 304.635 291.465C305.955 290.145 307.637 289.246 309.468 288.881C311.3 288.517 313.198 288.704 314.923 289.419C316.648 290.133 318.122 291.343 319.159 292.895C320.196 294.448 320.75 296.273 320.75 298.14C320.747 300.643 319.752 303.042 317.982 304.812C316.213 306.582 313.813 307.577 311.31 307.58ZM311.31 294.58C310.604 294.58 309.913 294.79 309.326 295.182C308.738 295.575 308.281 296.133 308.011 296.786C307.741 297.439 307.671 298.157 307.809 298.85C307.948 299.543 308.289 300.179 308.789 300.678C309.29 301.177 309.927 301.516 310.62 301.653C311.313 301.789 312.031 301.717 312.683 301.445C313.335 301.174 313.892 300.714 314.283 300.126C314.674 299.538 314.882 298.846 314.88 298.14C314.877 297.195 314.5 296.289 313.831 295.622C313.162 294.955 312.255 294.58 311.31 294.58Z" fill="white"/>
  <path d="M255.82 307.58C253.953 307.582 252.127 307.03 250.573 305.994C249.019 304.958 247.808 303.484 247.092 301.759C246.376 300.035 246.187 298.136 246.55 296.304C246.913 294.473 247.812 292.79 249.131 291.468C250.451 290.147 252.133 289.247 253.965 288.882C255.796 288.517 257.695 288.703 259.42 289.418C261.146 290.132 262.621 291.342 263.659 292.894C264.696 294.447 265.25 296.272 265.25 298.14C265.245 300.64 264.25 303.037 262.483 304.806C260.716 306.575 258.32 307.572 255.82 307.58ZM255.82 294.58C255.113 294.578 254.422 294.786 253.833 295.177C253.244 295.569 252.785 296.126 252.514 296.779C252.242 297.432 252.171 298.151 252.308 298.844C252.446 299.537 252.786 300.174 253.286 300.674C253.786 301.174 254.423 301.514 255.116 301.652C255.81 301.789 256.528 301.718 257.181 301.446C257.834 301.175 258.391 300.716 258.783 300.127C259.174 299.538 259.382 298.847 259.38 298.14C259.377 297.197 259.002 296.293 258.335 295.626C257.667 294.959 256.763 294.583 255.82 294.58Z" fill="white"/>
  <path d="M333.98 229.17L319.02 276.09H255.57L240.62 229.17L290.15 229.22L333.98 229.17Z" fill="white"/>
  <path d="M195 210.87C209.492 210.87 221.24 199.122 221.24 184.63C221.24 170.138 209.492 158.39 195 158.39C180.508 158.39 168.76 170.138 168.76 184.63C168.76 199.122 180.508 210.87 195 210.87Z" fill="#455A64"/>
  <path d="M192 199.6L180.73 188.18L184.52 184.44L191.1 191.11L204.79 169.65L209.28 172.52L192 199.6Z" fill="white"/>
  <path d="M554.41 318.5H477.32V343.61H554.41V318.5Z" fill="#14B889"/>
  <path d="M554.42 305.52C514.42 305.64 433.97 305.87 393.98 305.88H393.63V305.52L393.48 183.18V182.68H393.98L554.73 182.87C555.05 182.99 554.18 305.33 554.42 305.52ZM554.42 305.52C554.42 305.64 553.75 181.83 554.42 183.52L394 183.68L394.5 183.18C394.42 183.03 394.83 307.07 394 305.18C434 305.18 514.46 305.41 554.44 305.53L554.42 305.52Z" fill="#C7C7C7"/>
  <path d="M467.32 194.63H404.75V207.35H467.32V194.63Z" fill="#EBEBEB"/>
  <path d="M545.75 290.35H496.12V298.55H545.75V290.35Z" fill="#C7C7C7"/>
  <path d="M404.75 218.9C427.05 218.23 449.5 218.23 471.81 218.9C449.5 219.58 427.05 219.58 404.75 218.9Z" fill="#C7C7C7"/>
  <path d="M404.75 227C427.05 226.33 449.5 226.33 471.81 227C449.5 227.67 427.05 227.67 404.75 227Z" fill="#C7C7C7"/>
  <path d="M404.75 235.08C427.05 234.41 449.5 234.41 471.81 235.08C449.5 235.75 427.05 235.75 404.75 235.08Z" fill="#C7C7C7"/>
  <path d="M404.75 243.17C427.05 242.49 449.5 242.49 471.81 243.17C449.5 243.85 427.05 243.85 404.75 243.17Z" fill="#C7C7C7"/>
  <path d="M404.75 251.25C427.05 250.58 449.5 250.58 471.81 251.25C449.5 251.92 427.05 251.92 404.75 251.25Z" fill="#C7C7C7"/>
  <path d="M404.75 259.34C427.05 258.67 449.5 258.67 471.81 259.34C449.5 260.01 427.05 260.01 404.75 259.34Z" fill="#C7C7C7"/>
  <path d="M404.75 267.43C427.05 266.75 449.5 266.75 471.81 267.43C449.5 268.1 427.05 268.1 404.75 267.43Z" fill="#C7C7C7"/>
  <path d="M477.2 218.9C486.771 218.22 496.378 218.22 505.95 218.9C496.379 219.59 486.771 219.59 477.2 218.9Z" fill="#C7C7C7"/>
  <path d="M477.2 227C486.788 226.317 496.412 226.317 506 227C496.428 227.68 486.821 227.68 477.25 227H477.2Z" fill="#C7C7C7"/>
  <path d="M477.2 235.08C486.771 234.4 496.378 234.4 505.95 235.08C496.378 235.76 486.771 235.76 477.2 235.08Z" fill="#C7C7C7"/>
  <path d="M477.2 243.17C486.771 242.48 496.379 242.48 505.95 243.17C496.378 243.85 486.771 243.85 477.2 243.17Z" fill="#C7C7C7"/>
  <path d="M477.2 251.25C486.771 250.57 496.378 250.57 505.95 251.25C496.378 251.93 486.771 251.93 477.2 251.25Z" fill="#C7C7C7"/>
  <path d="M477.2 259.34C486.771 258.66 496.378 258.66 505.95 259.34C496.378 260.02 486.771 260.02 477.2 259.34Z" fill="#C7C7C7"/>
  <path d="M520.94 218.9C529.186 218.215 537.474 218.215 545.72 218.9C537.474 219.59 529.186 219.59 520.94 218.9Z" fill="#C7C7C7"/>
  <path d="M520.94 227C529.186 226.315 537.474 226.315 545.72 227C537.474 227.69 529.186 227.69 520.94 227Z" fill="#C7C7C7"/>
  <path d="M520.94 235.08C529.186 234.39 537.474 234.39 545.72 235.08C537.474 235.765 529.186 235.765 520.94 235.08Z" fill="#C7C7C7"/>
  <path d="M520.94 243.17C529.186 242.48 537.474 242.48 545.72 243.17C537.474 243.86 529.186 243.86 520.94 243.17Z" fill="#C7C7C7"/>
  <path d="M520.94 251.25C529.186 250.565 537.474 250.565 545.72 251.25C537.474 251.94 529.186 251.94 520.94 251.25Z" fill="#C7C7C7"/>
  <path d="M520.94 259.34C529.186 258.65 537.474 258.65 545.72 259.34C537.474 260.025 529.186 260.025 520.94 259.34Z" fill="#C7C7C7"/>
  <path d="M520.94 267.43C529.186 266.74 537.474 266.74 545.72 267.43C537.474 268.115 529.186 268.115 520.94 267.43Z" fill="#C7C7C7"/>
  <path d="M532.27 419.28H640.049L624.33 309.5H547.979L532.27 419.28Z" fill="#37474F"/>
  <path d="M547.98 309.49L559.96 419.29H532.26L547.98 309.49Z" fill="#455A64"/>
  <path d="M602.83 317.06L606.2 316.35C606.2 316.26 604.2 307.04 602.14 297.72C599.88 287.66 590 283 581.71 284.36C575.52 285.36 568.66 290.2 569.71 300.52C570.82 311.52 571.66 316.77 571.71 316.98L575.11 316.43C575.11 316.38 574.25 311.1 573.11 300.17C572.31 292.24 577.31 288.56 582.25 287.76C588.94 286.68 596.95 290.39 598.77 298.48C600.86 307.77 602.81 317 602.83 317.06Z" fill="#263238"/>
  <path d="M558.5 418.44C556.28 416.87 553.99 415.44 551.7 413.98C549.41 412.52 547.07 411.17 544.7 409.83L544.38 409.65L544.08 409.87C542.26 411.23 540.44 412.6 538.67 414.04C536.9 415.48 535.12 416.91 533.42 418.43C535.42 417.25 537.28 415.99 539.16 414.71C541.04 413.43 542.91 412.12 544.75 410.78H544.14C546.47 412.15 548.84 413.48 551.22 414.78C553.6 416.08 556 417.31 558.5 418.44Z" fill="white"/>
  <path d="M544.43 410.32C544.9 403.32 545.25 396.32 545.58 389.32C545.91 382.32 546.15 375.32 546.43 368.32C546.71 361.32 546.87 354.32 547.01 347.32L547.21 336.8C547.21 333.29 547.3 329.8 547.29 326.28C547.04 329.78 546.86 333.28 546.65 336.78L546.13 347.29C545.8 354.29 545.57 361.29 545.29 368.29C545.01 375.29 544.85 382.29 544.7 389.29C544.55 396.29 544.43 403.31 544.43 410.32Z" fill="white"/>
  <path d="M599.94 316.71C599.94 317.616 600.209 318.502 600.713 319.255C601.216 320.009 601.932 320.596 602.77 320.942C603.607 321.289 604.528 321.379 605.417 321.201C606.306 321.024 607.122 320.586 607.762 319.945C608.402 319.303 608.838 318.486 609.013 317.597C609.189 316.708 609.097 315.787 608.748 314.95C608.4 314.114 607.812 313.399 607.057 312.897C606.303 312.395 605.416 312.128 604.51 312.13C603.297 312.133 602.135 312.616 601.278 313.475C600.421 314.333 599.94 315.497 599.94 316.71Z" fill="#263238"/>
  <path d="M569.15 316.71C569.15 317.616 569.419 318.502 569.922 319.255C570.426 320.009 571.142 320.596 571.979 320.942C572.817 321.289 573.738 321.379 574.627 321.201C575.516 321.024 576.332 320.586 576.972 319.945C577.612 319.303 578.047 318.486 578.223 317.597C578.399 316.708 578.307 315.787 577.958 314.95C577.61 314.114 577.022 313.399 576.267 312.897C575.513 312.395 574.626 312.128 573.72 312.13C572.507 312.133 571.345 312.616 570.488 313.475C569.631 314.333 569.15 315.497 569.15 316.71Z" fill="#263238"/>
  <path d="M576.65 419.28H670.4L656.73 323.79H590.32L576.65 419.28Z" fill="#14B889"/>
  <path d="M590.32 323.79L600.74 419.29H576.65L590.32 323.79Z" fill="#14B889"/>
  <path opacity="0.1" d="M590.32 323.79L600.74 419.29H576.65L590.32 323.79Z" fill="black"/>
  <path d="M638 330.37L640.93 329.75C640.93 329.67 639.21 321.65 637.4 313.55C635.4 304.8 626.83 300.77 619.63 301.93C614.25 302.8 608.28 307 609.18 315.98C610.18 325.59 610.87 330.11 610.9 330.3L613.9 329.82C613.9 329.82 613.16 325.18 612.21 315.68C611.51 308.78 615.859 305.58 620.159 304.89C625.979 303.95 632.95 307.17 634.52 314.21C636.32 322.29 638 330.29 638 330.37Z" fill="#263238"/>
  <path d="M599.47 418.55C597.54 417.18 595.55 415.93 593.55 414.67C591.55 413.41 589.55 412.23 587.48 411.06L587.19 410.9L586.94 411.09C585.35 412.28 583.77 413.47 582.23 414.73C580.69 415.99 579.15 417.22 577.66 418.54C579.37 417.54 581.02 416.42 582.66 415.31C584.3 414.2 585.92 413.05 587.52 411.88H586.99C588.99 413.08 591.043 414.233 593.15 415.34C595.23 416.47 597.32 417.57 599.47 418.55Z" fill="white"/>
  <path d="M587.229 411.49C587.639 405.4 587.949 399.31 588.229 393.21C588.509 387.11 588.71 381.02 588.96 374.93C589.21 368.84 589.339 362.73 589.469 356.64L589.64 347.49C589.64 344.43 589.72 341.39 589.71 338.33C589.49 341.38 589.34 344.42 589.15 347.47L588.7 356.61C588.42 362.7 588.209 368.8 587.969 374.89C587.729 380.98 587.59 387.09 587.46 393.19C587.33 399.29 587.229 405.39 587.229 411.49Z" fill="white"/>
  <path d="M635.51 330.06C635.51 330.851 635.744 331.625 636.184 332.282C636.623 332.94 637.248 333.453 637.979 333.756C638.71 334.058 639.514 334.138 640.29 333.983C641.066 333.829 641.779 333.448 642.338 332.888C642.898 332.329 643.279 331.616 643.433 330.84C643.587 330.064 643.508 329.26 643.205 328.529C642.903 327.798 642.39 327.174 641.732 326.734C641.074 326.295 640.301 326.06 639.51 326.06C638.449 326.06 637.431 326.481 636.681 327.232C635.931 327.982 635.51 328.999 635.51 330.06Z" fill="#263238"/>
  <path d="M608.729 330.06C608.729 330.851 608.964 331.625 609.404 332.282C609.843 332.94 610.468 333.453 611.199 333.756C611.93 334.058 612.734 334.138 613.51 333.983C614.286 333.829 614.999 333.448 615.558 332.888C616.117 332.329 616.498 331.616 616.653 330.84C616.807 330.064 616.728 329.26 616.425 328.529C616.122 327.798 615.61 327.174 614.952 326.734C614.294 326.295 613.521 326.06 612.729 326.06C611.669 326.06 610.651 326.481 609.901 327.232C609.151 327.982 608.729 328.999 608.729 330.06Z" fill="#263238"/>
  <path d="M399.87 76.9C399.433 81.0676 397.848 85.0319 395.29 88.351C392.732 91.67 389.302 94.2133 385.384 95.6973C381.465 97.1812 377.211 97.5474 373.096 96.7551C368.981 95.9628 365.168 94.0431 362.08 91.21L350.77 92.87L356.43 83.09C355.13 79.9057 354.574 76.4669 354.803 73.0352C355.033 69.6036 356.042 66.2694 357.753 63.2862C359.465 60.303 361.834 57.7494 364.681 55.8196C367.528 53.8897 370.777 52.6345 374.182 52.1493C377.587 51.6641 381.058 51.9618 384.33 53.0196C387.603 54.0774 390.591 55.8676 393.068 58.254C395.545 60.6403 397.445 63.5601 398.623 66.7911C399.802 70.0221 400.228 73.4794 399.87 76.9Z" fill="white"/>
  <path d="M399.87 76.8999C399.434 81.0699 397.856 85.0389 395.31 88.3699C394.673 89.1954 393.988 89.9834 393.26 90.7299C392.502 91.4418 391.704 92.1096 390.87 92.7299C387.5 95.2497 383.507 96.8022 379.32 97.2199C378.276 97.31 377.227 97.33 376.18 97.2799C375.13 97.2503 374.083 97.14 373.05 96.9499C368.881 96.1822 365.007 94.2711 361.86 91.4299L362.13 91.5099L350.82 93.2399L350 93.3699L350.42 92.6499L356.05 82.8399V83.2299C354.724 79.9872 354.16 76.4834 354.401 72.9883C354.642 69.4933 355.682 66.1001 357.44 63.0699C359.207 60.0556 361.63 57.4784 364.53 55.5299C367.428 53.6016 370.729 52.3632 374.18 51.9099C377.603 51.4542 381.084 51.7807 384.362 52.865C387.64 53.9492 390.63 55.7628 393.106 58.1694C395.582 60.5761 397.48 63.5129 398.656 66.759C399.833 70.0051 400.258 73.4758 399.9 76.9099L399.87 76.8999ZM399.87 76.8999C400.229 73.4941 399.802 70.0512 398.622 66.8363C397.441 63.6214 395.539 60.7201 393.062 58.3556C390.584 55.9911 387.597 54.2265 384.331 53.1975C381.064 52.1684 377.605 51.9024 374.22 52.4199C370.867 52.9269 367.674 54.1886 364.88 56.1099C362.115 58.0501 359.805 60.5683 358.11 63.4899C356.447 66.424 355.466 69.6949 355.24 73.0599C355.032 76.4238 355.576 79.7918 356.83 82.9199L356.92 83.1199L356.81 83.3099L351.11 93.0699L350.71 92.4699L362 90.8799H362.16L362.27 90.9899C365.293 93.8178 369.043 95.7497 373.1 96.5699C374.112 96.7731 375.139 96.8968 376.17 96.9399C377.202 97.0149 378.238 97.0149 379.27 96.9399C381.322 96.7785 383.342 96.3308 385.27 95.6099C387.223 94.907 389.06 93.916 390.72 92.6699C391.56 92.0563 392.358 91.3882 393.11 90.6699C393.844 89.9326 394.532 89.1512 395.17 88.3299C397.761 85.0266 399.388 81.0706 399.87 76.8999Z" fill="#263238"/>
  <path d="M374.73 87.45L365.07 77.67L368.31 74.46L373.95 80.17L385.68 61.79L389.53 64.25L374.73 87.45Z" fill="#14B889"/>
</svg>
  